<svg xmlns="http://www.w3.org/2000/svg" xmlns:xlink="http://www.w3.org/1999/xlink" width="1080" zoomAndPan="magnify" viewBox="0 0 810 809.999993" height="1080" preserveAspectRatio="xMidYMid meet" version="1.0"><defs><clipPath id="b927ae1f35"><path d="M 94.089844 46.507812 L 715.839844 46.507812 L 715.839844 763.507812 L 94.089844 763.507812 Z M 94.089844 46.507812 " clip-rule="nonzero"/></clipPath></defs><path fill="#ffcc00" d="M 536.445312 524.492188 C 535.660156 524.492188 534.882812 524.453125 534.101562 524.375 C 533.324219 524.300781 532.550781 524.183594 531.78125 524.03125 C 531.015625 523.878906 530.257812 523.691406 529.507812 523.460938 C 528.757812 523.234375 528.023438 522.972656 527.300781 522.671875 C 526.574219 522.371094 525.867188 522.039062 525.179688 521.667969 C 524.488281 521.300781 523.816406 520.898438 523.167969 520.464844 C 522.515625 520.027344 521.886719 519.5625 521.285156 519.066406 C 520.679688 518.570312 520.097656 518.046875 519.546875 517.492188 C 518.992188 516.9375 518.46875 516.359375 517.96875 515.753906 C 517.472656 515.148438 517.007812 514.519531 516.574219 513.871094 C 516.136719 513.21875 515.738281 512.546875 515.367188 511.859375 C 515 511.167969 514.664062 510.460938 514.363281 509.738281 C 514.066406 509.015625 513.800781 508.277344 513.574219 507.53125 C 513.347656 506.78125 513.15625 506.023438 513.003906 505.253906 C 512.851562 504.488281 512.738281 503.714844 512.660156 502.933594 C 512.582031 502.15625 512.546875 501.375 512.546875 500.59375 L 512.546875 476.691406 C 512.546875 475.128906 512.46875 473.566406 512.316406 472.007812 C 512.160156 470.449219 511.933594 468.902344 511.628906 467.367188 C 511.320312 465.832031 510.941406 464.316406 510.488281 462.816406 C 510.03125 461.320312 509.507812 459.847656 508.90625 458.402344 C 508.308594 456.957031 507.640625 455.542969 506.902344 454.160156 C 506.164062 452.78125 505.359375 451.4375 504.488281 450.136719 C 503.621094 448.835938 502.6875 447.582031 501.695312 446.371094 C 500.703125 445.160156 499.652344 444 498.546875 442.894531 C 497.4375 441.789062 496.28125 440.738281 495.070312 439.746094 C 493.859375 438.75 492.605469 437.820312 491.300781 436.949219 C 490 436.082031 488.660156 435.277344 487.277344 434.539062 C 485.898438 433.800781 484.484375 433.132812 483.039062 432.53125 C 481.59375 431.933594 480.121094 431.40625 478.621094 430.953125 C 477.125 430.5 475.609375 430.117188 474.070312 429.8125 C 472.535156 429.507812 470.988281 429.277344 469.433594 429.125 C 467.875 428.972656 466.3125 428.894531 464.746094 428.894531 C 463.960938 428.894531 463.183594 428.972656 462.414062 429.125 C 461.644531 429.277344 460.898438 429.503906 460.175781 429.804688 C 459.449219 430.105469 458.761719 430.472656 458.109375 430.910156 C 457.457031 431.34375 456.851562 431.839844 456.296875 432.394531 C 455.742188 432.949219 455.246094 433.554688 454.8125 434.207031 C 454.375 434.859375 454.007812 435.546875 453.707031 436.269531 C 453.40625 436.996094 453.179688 437.742188 453.027344 438.511719 C 452.875 439.28125 452.796875 440.058594 452.796875 440.84375 C 452.796875 441.628906 452.875 442.40625 453.027344 443.175781 C 453.179688 443.945312 453.40625 444.691406 453.707031 445.417969 C 454.007812 446.140625 454.375 446.832031 454.8125 447.484375 C 455.246094 448.136719 455.742188 448.738281 456.296875 449.292969 C 456.851562 449.847656 457.457031 450.34375 458.109375 450.78125 C 458.761719 451.214844 459.449219 451.582031 460.175781 451.882812 C 460.898438 452.183594 461.644531 452.410156 462.414062 452.5625 C 463.183594 452.71875 463.960938 452.792969 464.746094 452.792969 C 465.53125 452.792969 466.3125 452.832031 467.089844 452.910156 C 467.867188 452.984375 468.640625 453.101562 469.410156 453.253906 C 470.175781 453.40625 470.9375 453.597656 471.683594 453.824219 C 472.433594 454.050781 473.167969 454.3125 473.894531 454.613281 C 474.617188 454.914062 475.324219 455.246094 476.011719 455.617188 C 476.703125 455.984375 477.375 456.386719 478.023438 456.820312 C 478.675781 457.257812 479.304688 457.722656 479.910156 458.21875 C 480.515625 458.714844 481.09375 459.242188 481.644531 459.792969 C 482.199219 460.347656 482.726562 460.925781 483.222656 461.53125 C 483.71875 462.136719 484.183594 462.765625 484.617188 463.414062 C 485.054688 464.066406 485.457031 464.738281 485.824219 465.425781 C 486.191406 466.117188 486.527344 466.824219 486.828125 467.546875 C 487.125 468.269531 487.390625 469.007812 487.617188 469.753906 C 487.84375 470.503906 488.035156 471.261719 488.1875 472.03125 C 488.339844 472.796875 488.453125 473.570312 488.53125 474.351562 C 488.609375 475.128906 488.644531 475.910156 488.644531 476.691406 L 488.644531 500.59375 C 488.644531 503.984375 489 507.339844 489.714844 510.65625 C 490.429688 513.972656 491.488281 517.175781 492.886719 520.269531 C 494.285156 523.359375 495.992188 526.269531 498.011719 528.996094 C 500.03125 531.722656 502.316406 534.203125 504.867188 536.441406 C 502.316406 538.679688 500.03125 541.160156 498.011719 543.886719 C 495.992188 546.613281 494.285156 549.523438 492.886719 552.613281 C 491.488281 555.703125 490.429688 558.910156 489.714844 562.226562 C 489 565.542969 488.644531 568.898438 488.644531 572.289062 L 488.644531 596.1875 C 488.644531 596.972656 488.609375 597.753906 488.53125 598.53125 C 488.453125 599.3125 488.339844 600.082031 488.1875 600.851562 C 488.035156 601.621094 487.84375 602.378906 487.617188 603.125 C 487.390625 603.875 487.125 604.613281 486.828125 605.335938 C 486.527344 606.058594 486.191406 606.765625 485.824219 607.457031 C 485.457031 608.144531 485.054688 608.816406 484.617188 609.46875 C 484.183594 610.117188 483.71875 610.746094 483.222656 611.351562 C 482.726562 611.957031 482.199219 612.535156 481.644531 613.089844 C 481.09375 613.640625 480.515625 614.167969 479.910156 614.664062 C 479.304688 615.160156 478.675781 615.625 478.023438 616.0625 C 477.375 616.496094 476.703125 616.898438 476.011719 617.265625 C 475.324219 617.636719 474.617188 617.96875 473.894531 618.269531 C 473.167969 618.570312 472.433594 618.832031 471.683594 619.058594 C 470.9375 619.285156 470.175781 619.476562 469.410156 619.628906 C 468.640625 619.78125 467.867188 619.898438 467.089844 619.972656 C 466.3125 620.050781 465.53125 620.089844 464.746094 620.089844 C 463.960938 620.089844 463.183594 620.164062 462.414062 620.316406 C 461.644531 620.472656 460.898438 620.699219 460.175781 620.996094 C 459.449219 621.296875 458.761719 621.667969 458.109375 622.101562 C 457.457031 622.539062 456.851562 623.035156 456.296875 623.589844 C 455.742188 624.144531 455.246094 624.746094 454.8125 625.398438 C 454.375 626.050781 454.007812 626.738281 453.707031 627.464844 C 453.40625 628.191406 453.179688 628.9375 453.027344 629.707031 C 452.875 630.476562 452.796875 631.253906 452.796875 632.039062 C 452.796875 632.824219 452.875 633.601562 453.027344 634.371094 C 453.179688 635.140625 453.40625 635.886719 453.707031 636.609375 C 454.007812 637.335938 454.375 638.023438 454.8125 638.675781 C 455.246094 639.328125 455.742188 639.933594 456.296875 640.488281 C 456.851562 641.042969 457.457031 641.539062 458.109375 641.972656 C 458.761719 642.410156 459.449219 642.777344 460.175781 643.078125 C 460.898438 643.378906 461.644531 643.605469 462.414062 643.757812 C 463.183594 643.910156 463.960938 643.988281 464.746094 643.988281 C 466.3125 643.988281 467.875 643.910156 469.433594 643.757812 C 470.988281 643.605469 472.535156 643.375 474.070312 643.070312 C 475.609375 642.765625 477.125 642.382812 478.621094 641.929688 C 480.121094 641.476562 481.59375 640.949219 483.039062 640.347656 C 484.484375 639.75 485.898438 639.082031 487.277344 638.34375 C 488.660156 637.605469 490 636.800781 491.300781 635.933594 C 492.605469 635.0625 493.859375 634.132812 495.070312 633.136719 C 496.28125 632.144531 497.4375 631.09375 498.546875 629.988281 C 499.652344 628.878906 500.703125 627.722656 501.695312 626.511719 C 502.6875 625.300781 503.621094 624.046875 504.488281 622.746094 C 505.359375 621.441406 506.164062 620.101562 506.902344 618.722656 C 507.640625 617.339844 508.308594 615.925781 508.90625 614.480469 C 509.507812 613.035156 510.03125 611.5625 510.488281 610.0625 C 510.941406 608.566406 511.320312 607.050781 511.628906 605.515625 C 511.933594 603.980469 512.160156 602.433594 512.316406 600.875 C 512.46875 599.316406 512.546875 597.753906 512.546875 596.1875 L 512.546875 572.289062 C 512.546875 571.507812 512.585938 570.726562 512.660156 569.949219 C 512.738281 569.167969 512.851562 568.394531 513.003906 567.628906 C 513.15625 566.859375 513.347656 566.101562 513.574219 565.351562 C 513.800781 564.601562 514.066406 563.867188 514.363281 563.144531 C 514.664062 562.421875 515 561.714844 515.367188 561.023438 C 515.738281 560.332031 516.136719 559.664062 516.574219 559.011719 C 517.007812 558.363281 517.472656 557.734375 517.96875 557.128906 C 518.46875 556.523438 518.992188 555.945312 519.546875 555.390625 C 520.097656 554.835938 520.679688 554.3125 521.285156 553.816406 C 521.886719 553.320312 522.515625 552.851562 523.167969 552.417969 C 523.816406 551.984375 524.488281 551.582031 525.179688 551.210938 C 525.867188 550.84375 526.574219 550.507812 527.300781 550.210938 C 528.023438 549.910156 528.757812 549.648438 529.507812 549.417969 C 530.257812 549.191406 531.015625 549.003906 531.78125 548.851562 C 532.550781 548.699219 533.324219 548.582031 534.101562 548.507812 C 534.882812 548.429688 535.660156 548.390625 536.445312 548.390625 C 537.230469 548.390625 538.007812 548.3125 538.777344 548.160156 C 539.546875 548.007812 540.292969 547.78125 541.019531 547.480469 C 541.742188 547.179688 542.429688 546.8125 543.082031 546.375 C 543.734375 545.941406 544.339844 545.445312 544.894531 544.890625 C 545.449219 544.335938 545.945312 543.730469 546.378906 543.078125 C 546.816406 542.425781 547.183594 541.738281 547.484375 541.015625 C 547.785156 540.289062 548.011719 539.542969 548.164062 538.773438 C 548.316406 538.003906 548.394531 537.226562 548.394531 536.441406 C 548.394531 535.65625 548.316406 534.878906 548.164062 534.109375 C 548.011719 533.339844 547.785156 532.59375 547.484375 531.867188 C 547.183594 531.144531 546.816406 530.453125 546.378906 529.800781 C 545.945312 529.148438 545.449219 528.546875 544.894531 527.992188 C 544.339844 527.4375 543.734375 526.941406 543.082031 526.503906 C 542.429688 526.070312 541.742188 525.703125 541.019531 525.402344 C 540.292969 525.101562 539.546875 524.875 538.777344 524.722656 C 538.007812 524.566406 537.230469 524.492188 536.445312 524.492188 Z M 536.445312 524.492188 " fill-opacity="1" fill-rule="nonzero"/><path fill="#ffcc00" d="M 273.554688 476.691406 C 273.554688 475.910156 273.589844 475.128906 273.667969 474.351562 C 273.746094 473.570312 273.859375 472.796875 274.011719 472.03125 C 274.164062 471.261719 274.355469 470.503906 274.582031 469.753906 C 274.808594 469.007812 275.074219 468.269531 275.371094 467.546875 C 275.671875 466.824219 276.007812 466.117188 276.375 465.425781 C 276.746094 464.738281 277.144531 464.066406 277.582031 463.414062 C 278.015625 462.765625 278.480469 462.136719 278.976562 461.53125 C 279.476562 460.925781 280 460.347656 280.554688 459.792969 C 281.105469 459.242188 281.6875 458.714844 282.292969 458.21875 C 282.894531 457.722656 283.523438 457.257812 284.175781 456.820312 C 284.824219 456.386719 285.496094 455.984375 286.1875 455.617188 C 286.875 455.246094 287.582031 454.914062 288.308594 454.613281 C 289.03125 454.3125 289.765625 454.050781 290.515625 453.824219 C 291.265625 453.597656 292.023438 453.40625 292.789062 453.253906 C 293.558594 453.101562 294.332031 452.984375 295.109375 452.910156 C 295.890625 452.832031 296.667969 452.792969 297.453125 452.792969 C 298.238281 452.792969 299.015625 452.71875 299.785156 452.5625 C 300.554688 452.410156 301.300781 452.183594 302.027344 451.882812 C 302.75 451.582031 303.4375 451.214844 304.089844 450.78125 C 304.742188 450.34375 305.347656 449.847656 305.902344 449.292969 C 306.457031 448.738281 306.953125 448.136719 307.386719 447.484375 C 307.824219 446.832031 308.191406 446.140625 308.492188 445.417969 C 308.792969 444.691406 309.019531 443.945312 309.171875 443.175781 C 309.324219 442.40625 309.402344 441.628906 309.402344 440.84375 C 309.402344 440.058594 309.324219 439.28125 309.171875 438.511719 C 309.019531 437.742188 308.792969 436.996094 308.492188 436.269531 C 308.191406 435.546875 307.824219 434.859375 307.386719 434.207031 C 306.953125 433.554688 306.457031 432.949219 305.902344 432.394531 C 305.347656 431.839844 304.742188 431.34375 304.089844 430.910156 C 303.4375 430.472656 302.75 430.105469 302.027344 429.804688 C 301.300781 429.503906 300.554688 429.277344 299.785156 429.125 C 299.015625 428.972656 298.238281 428.894531 297.453125 428.894531 C 295.886719 428.894531 294.324219 428.972656 292.769531 429.125 C 291.210938 429.277344 289.664062 429.507812 288.128906 429.8125 C 286.59375 430.117188 285.074219 430.5 283.578125 430.953125 C 282.078125 431.40625 280.605469 431.933594 279.160156 432.53125 C 277.714844 433.132812 276.300781 433.800781 274.921875 434.539062 C 273.539062 435.277344 272.199219 436.082031 270.898438 436.949219 C 269.59375 437.820312 268.339844 438.75 267.128906 439.746094 C 265.917969 440.738281 264.761719 441.789062 263.652344 442.894531 C 262.546875 444 261.496094 445.160156 260.503906 446.371094 C 259.511719 447.582031 258.578125 448.835938 257.710938 450.136719 C 256.839844 451.4375 256.035156 452.78125 255.296875 454.160156 C 254.558594 455.542969 253.890625 456.957031 253.292969 458.402344 C 252.695312 459.847656 252.167969 461.320312 251.710938 462.816406 C 251.257812 464.316406 250.878906 465.832031 250.574219 467.367188 C 250.265625 468.902344 250.039062 470.449219 249.882812 472.007812 C 249.730469 473.566406 249.652344 475.128906 249.652344 476.691406 L 249.652344 500.59375 C 249.652344 501.375 249.617188 502.15625 249.539062 502.933594 C 249.460938 503.714844 249.347656 504.488281 249.195312 505.253906 C 249.042969 506.023438 248.851562 506.78125 248.625 507.53125 C 248.398438 508.277344 248.132812 509.015625 247.835938 509.738281 C 247.535156 510.460938 247.199219 511.167969 246.832031 511.859375 C 246.464844 512.546875 246.0625 513.21875 245.625 513.871094 C 245.191406 514.519531 244.726562 515.148438 244.230469 515.753906 C 243.734375 516.359375 243.207031 516.9375 242.652344 517.492188 C 242.101562 518.046875 241.523438 518.570312 240.917969 519.066406 C 240.3125 519.5625 239.683594 520.027344 239.03125 520.464844 C 238.382812 520.898438 237.710938 521.300781 237.019531 521.667969 C 236.332031 522.039062 235.625 522.371094 234.902344 522.671875 C 234.175781 522.972656 233.441406 523.234375 232.691406 523.460938 C 231.945312 523.691406 231.183594 523.878906 230.417969 524.03125 C 229.648438 524.183594 228.875 524.300781 228.097656 524.375 C 227.320312 524.453125 226.539062 524.492188 225.753906 524.492188 C 224.96875 524.492188 224.191406 524.566406 223.421875 524.722656 C 222.652344 524.875 221.90625 525.101562 221.183594 525.402344 C 220.457031 525.703125 219.769531 526.070312 219.117188 526.503906 C 218.464844 526.941406 217.859375 527.4375 217.304688 527.992188 C 216.75 528.546875 216.253906 529.148438 215.820312 529.800781 C 215.382812 530.453125 215.015625 531.144531 214.714844 531.867188 C 214.414062 532.59375 214.1875 533.339844 214.035156 534.109375 C 213.882812 534.878906 213.804688 535.65625 213.804688 536.441406 C 213.804688 537.226562 213.882812 538.003906 214.035156 538.773438 C 214.1875 539.542969 214.414062 540.289062 214.714844 541.015625 C 215.015625 541.738281 215.382812 542.425781 215.820312 543.078125 C 216.253906 543.730469 216.75 544.335938 217.304688 544.890625 C 217.859375 545.445312 218.464844 545.941406 219.117188 546.375 C 219.769531 546.8125 220.457031 547.179688 221.183594 547.480469 C 221.90625 547.78125 222.652344 548.007812 223.421875 548.160156 C 224.191406 548.3125 224.96875 548.390625 225.753906 548.390625 C 226.539062 548.390625 227.320312 548.429688 228.097656 548.507812 C 228.875 548.582031 229.648438 548.699219 230.417969 548.851562 C 231.183594 549.003906 231.945312 549.191406 232.691406 549.417969 C 233.441406 549.648438 234.175781 549.910156 234.902344 550.210938 C 235.625 550.507812 236.332031 550.84375 237.019531 551.210938 C 237.710938 551.582031 238.382812 551.984375 239.03125 552.417969 C 239.683594 552.851562 240.3125 553.320312 240.917969 553.816406 C 241.523438 554.3125 242.101562 554.835938 242.652344 555.390625 C 243.207031 555.945312 243.734375 556.523438 244.230469 557.128906 C 244.726562 557.734375 245.191406 558.363281 245.625 559.011719 C 246.0625 559.664062 246.464844 560.332031 246.832031 561.023438 C 247.199219 561.714844 247.535156 562.421875 247.835938 563.144531 C 248.132812 563.867188 248.398438 564.601562 248.625 565.351562 C 248.851562 566.101562 249.042969 566.859375 249.195312 567.628906 C 249.347656 568.394531 249.460938 569.167969 249.539062 569.949219 C 249.617188 570.726562 249.652344 571.507812 249.652344 572.289062 L 249.652344 596.1875 C 249.652344 597.753906 249.730469 599.316406 249.882812 600.875 C 250.039062 602.433594 250.265625 603.980469 250.574219 605.515625 C 250.878906 607.050781 251.257812 608.566406 251.710938 610.0625 C 252.167969 611.5625 252.695312 613.035156 253.292969 614.480469 C 253.890625 615.925781 254.558594 617.339844 255.296875 618.722656 C 256.035156 620.101562 256.839844 621.441406 257.710938 622.746094 C 258.578125 624.046875 259.511719 625.300781 260.503906 626.511719 C 261.496094 627.722656 262.546875 628.878906 263.652344 629.988281 C 264.761719 631.09375 265.917969 632.144531 267.128906 633.136719 C 268.339844 634.132812 269.59375 635.0625 270.898438 635.933594 C 272.199219 636.800781 273.539062 637.605469 274.921875 638.34375 C 276.300781 639.082031 277.714844 639.75 279.160156 640.347656 C 280.605469 640.949219 282.078125 641.476562 283.578125 641.929688 C 285.074219 642.382812 286.59375 642.765625 288.128906 643.070312 C 289.664062 643.375 291.210938 643.605469 292.765625 643.757812 C 294.324219 643.910156 295.886719 643.988281 297.453125 643.988281 C 298.238281 643.988281 299.015625 643.910156 299.785156 643.757812 C 300.554688 643.605469 301.300781 643.378906 302.027344 643.078125 C 302.75 642.777344 303.4375 642.410156 304.089844 641.972656 C 304.742188 641.539062 305.347656 641.042969 305.902344 640.488281 C 306.457031 639.933594 306.953125 639.328125 307.386719 638.675781 C 307.824219 638.023438 308.191406 637.335938 308.492188 636.609375 C 308.792969 635.886719 309.019531 635.140625 309.171875 634.371094 C 309.324219 633.601562 309.402344 632.824219 309.402344 632.039062 C 309.402344 631.253906 309.324219 630.476562 309.171875 629.707031 C 309.019531 628.9375 308.792969 628.191406 308.492188 627.464844 C 308.191406 626.738281 307.824219 626.050781 307.386719 625.398438 C 306.953125 624.746094 306.457031 624.144531 305.902344 623.589844 C 305.347656 623.035156 304.742188 622.539062 304.089844 622.101562 C 303.4375 621.667969 302.75 621.296875 302.027344 620.996094 C 301.300781 620.699219 300.554688 620.472656 299.785156 620.316406 C 299.015625 620.164062 298.238281 620.089844 297.453125 620.089844 C 296.667969 620.089844 295.890625 620.050781 295.109375 619.972656 C 294.332031 619.898438 293.558594 619.78125 292.789062 619.628906 C 292.023438 619.476562 291.265625 619.285156 290.515625 619.058594 C 289.765625 618.832031 289.03125 618.570312 288.308594 618.269531 C 287.582031 617.96875 286.875 617.636719 286.1875 617.265625 C 285.496094 616.898438 284.824219 616.496094 284.175781 616.0625 C 283.523438 615.625 282.894531 615.160156 282.292969 614.664062 C 281.6875 614.167969 281.105469 613.640625 280.554688 613.089844 C 280 612.535156 279.476562 611.957031 278.976562 611.351562 C 278.480469 610.746094 278.015625 610.117188 277.582031 609.46875 C 277.144531 608.816406 276.746094 608.144531 276.375 607.457031 C 276.007812 606.765625 275.671875 606.058594 275.371094 605.335938 C 275.074219 604.613281 274.808594 603.875 274.582031 603.125 C 274.355469 602.378906 274.164062 601.621094 274.011719 600.851562 C 273.859375 600.082031 273.746094 599.3125 273.667969 598.53125 C 273.589844 597.753906 273.554688 596.972656 273.554688 596.1875 L 273.554688 572.289062 C 273.554688 568.898438 273.199219 565.542969 272.484375 562.226562 C 271.769531 558.910156 270.714844 555.703125 269.316406 552.613281 C 267.914062 549.523438 266.207031 546.613281 264.1875 543.886719 C 262.167969 541.160156 259.882812 538.679688 257.332031 536.441406 C 259.882812 534.203125 262.167969 531.722656 264.1875 528.996094 C 266.207031 526.269531 267.914062 523.359375 269.316406 520.269531 C 270.714844 517.175781 271.769531 513.972656 272.484375 510.65625 C 273.199219 507.339844 273.554688 503.984375 273.554688 500.59375 Z M 273.554688 476.691406 " fill-opacity="1" fill-rule="nonzero"/><g clip-path="url(#b927ae1f35)"><path fill="#ffcc00" d="M 703.738281 46.507812 L 154.058594 46.507812 C 153.273438 46.507812 152.496094 46.582031 151.726562 46.738281 C 150.957031 46.890625 150.210938 47.117188 149.484375 47.417969 C 148.757812 47.71875 148.070312 48.085938 147.417969 48.519531 C 146.765625 48.957031 146.164062 49.453125 145.609375 50.007812 C 145.054688 50.5625 144.558594 51.164062 144.121094 51.816406 C 143.6875 52.46875 143.316406 53.160156 143.015625 53.882812 C 142.71875 54.609375 142.492188 55.355469 142.335938 56.125 C 142.183594 56.894531 142.109375 57.671875 142.109375 58.457031 L 142.109375 94.304688 L 106.257812 94.304688 C 105.472656 94.304688 104.695312 94.382812 103.925781 94.535156 C 103.15625 94.6875 102.410156 94.914062 101.6875 95.214844 C 100.960938 95.515625 100.273438 95.882812 99.621094 96.320312 C 98.96875 96.753906 98.363281 97.25 97.808594 97.804688 C 97.253906 98.359375 96.757812 98.964844 96.324219 99.617188 C 95.886719 100.269531 95.519531 100.957031 95.21875 101.683594 C 94.917969 102.40625 94.691406 103.15625 94.539062 103.925781 C 94.386719 104.695312 94.308594 105.46875 94.308594 106.253906 L 94.308594 751.535156 C 94.308594 752.320312 94.386719 753.097656 94.539062 753.867188 C 94.691406 754.636719 94.917969 755.382812 95.21875 756.105469 C 95.519531 756.832031 95.886719 757.519531 96.324219 758.171875 C 96.757812 758.824219 97.253906 759.429688 97.808594 759.984375 C 98.363281 760.539062 98.96875 761.035156 99.621094 761.46875 C 100.273438 761.90625 100.960938 762.273438 101.6875 762.574219 C 102.410156 762.875 103.15625 763.101562 103.925781 763.253906 C 104.695312 763.40625 105.472656 763.484375 106.257812 763.484375 L 655.941406 763.484375 C 656.726562 763.484375 657.503906 763.40625 658.273438 763.253906 C 659.042969 763.101562 659.789062 762.875 660.515625 762.574219 C 661.238281 762.273438 661.925781 761.90625 662.578125 761.46875 C 663.230469 761.035156 663.835938 760.539062 664.390625 759.984375 C 664.945312 759.429688 665.441406 758.824219 665.875 758.171875 C 666.3125 757.519531 666.679688 756.832031 666.980469 756.105469 C 667.28125 755.382812 667.507812 754.636719 667.660156 753.867188 C 667.8125 753.097656 667.890625 752.320312 667.890625 751.535156 L 667.890625 715.683594 L 703.738281 715.683594 C 704.523438 715.683594 705.300781 715.609375 706.070312 715.457031 C 706.839844 715.300781 707.585938 715.074219 708.3125 714.777344 C 709.035156 714.476562 709.726562 714.105469 710.378906 713.671875 C 711.03125 713.234375 711.632812 712.738281 712.1875 712.183594 C 712.742188 711.628906 713.238281 711.027344 713.675781 710.375 C 714.109375 709.722656 714.480469 709.035156 714.777344 708.308594 C 715.078125 707.582031 715.304688 706.835938 715.460938 706.066406 C 715.613281 705.296875 715.6875 704.519531 715.6875 703.734375 L 715.6875 58.457031 C 715.6875 57.671875 715.613281 56.894531 715.460938 56.125 C 715.304688 55.355469 715.078125 54.609375 714.777344 53.882812 C 714.480469 53.160156 714.109375 52.46875 713.675781 51.816406 C 713.238281 51.164062 712.742188 50.5625 712.1875 50.007812 C 711.632812 49.453125 711.03125 48.957031 710.378906 48.519531 C 709.726562 48.085938 709.035156 47.71875 708.3125 47.417969 C 707.585938 47.117188 706.839844 46.890625 706.070312 46.738281 C 705.300781 46.582031 704.523438 46.507812 703.738281 46.507812 Z M 154.058594 201.851562 C 154.058594 199.894531 154.152344 197.941406 154.34375 195.996094 C 154.535156 194.046875 154.824219 192.113281 155.207031 190.195312 C 155.585938 188.277344 156.0625 186.378906 156.628906 184.507812 C 157.199219 182.636719 157.855469 180.796875 158.605469 178.988281 C 159.355469 177.179688 160.191406 175.414062 161.113281 173.6875 C 162.035156 171.960938 163.039062 170.285156 164.125 168.65625 C 165.214844 167.03125 166.378906 165.460938 167.621094 163.949219 C 168.859375 162.4375 170.171875 160.988281 171.558594 159.605469 C 172.941406 158.21875 174.390625 156.90625 175.902344 155.667969 C 177.414062 154.425781 178.984375 153.261719 180.609375 152.171875 C 182.238281 151.085938 183.914062 150.082031 185.640625 149.160156 C 187.367188 148.238281 189.132812 147.402344 190.941406 146.652344 C 192.75 145.902344 194.589844 145.246094 196.460938 144.675781 C 198.335938 144.109375 200.230469 143.632812 202.148438 143.253906 C 204.066406 142.871094 206 142.582031 207.949219 142.390625 C 209.894531 142.199219 211.847656 142.105469 213.804688 142.105469 L 237.703125 142.105469 C 238.488281 142.105469 239.265625 142.179688 240.035156 142.332031 C 240.804688 142.488281 241.550781 142.714844 242.277344 143.011719 C 243.003906 143.3125 243.691406 143.683594 244.34375 144.117188 C 244.996094 144.554688 245.597656 145.050781 246.152344 145.605469 C 246.710938 146.160156 247.203125 146.761719 247.640625 147.414062 C 248.078125 148.066406 248.445312 148.753906 248.746094 149.480469 C 249.042969 150.207031 249.269531 150.953125 249.425781 151.722656 C 249.578125 152.492188 249.652344 153.269531 249.652344 154.054688 C 249.652344 154.839844 249.578125 155.617188 249.425781 156.386719 C 249.269531 157.15625 249.042969 157.902344 248.746094 158.625 C 248.445312 159.351562 248.078125 160.039062 247.640625 160.691406 C 247.203125 161.34375 246.710938 161.949219 246.152344 162.503906 C 245.597656 163.058594 244.996094 163.554688 244.34375 163.988281 C 243.691406 164.425781 243.003906 164.792969 242.277344 165.09375 C 241.550781 165.394531 240.804688 165.621094 240.035156 165.773438 C 239.265625 165.925781 238.488281 166.003906 237.703125 166.003906 L 213.804688 166.003906 C 212.632812 166.007812 211.460938 166.066406 210.292969 166.183594 C 209.128906 166.304688 207.96875 166.476562 206.820312 166.710938 C 205.667969 166.941406 204.53125 167.226562 203.410156 167.570312 C 202.289062 167.914062 201.1875 168.308594 200.101562 168.761719 C 199.019531 169.210938 197.960938 169.710938 196.925781 170.265625 C 195.894531 170.820312 194.886719 171.425781 193.914062 172.078125 C 192.9375 172.730469 191.996094 173.429688 191.089844 174.171875 C 190.183594 174.917969 189.316406 175.703125 188.488281 176.535156 C 187.65625 177.363281 186.871094 178.230469 186.125 179.136719 C 185.382812 180.042969 184.683594 180.984375 184.03125 181.960938 C 183.378906 182.933594 182.773438 183.941406 182.21875 184.972656 C 181.667969 186.007812 181.164062 187.066406 180.714844 188.148438 C 180.261719 189.234375 179.867188 190.335938 179.523438 191.457031 C 179.179688 192.578125 178.894531 193.714844 178.664062 194.867188 C 178.429688 196.015625 178.257812 197.175781 178.136719 198.339844 C 178.019531 199.507812 177.960938 200.679688 177.957031 201.851562 L 177.957031 225.75 C 177.960938 226.925781 178.019531 228.09375 178.136719 229.261719 C 178.257812 230.429688 178.429688 231.585938 178.664062 232.738281 C 178.894531 233.886719 179.179688 235.023438 179.523438 236.144531 C 179.867188 237.269531 180.261719 238.371094 180.714844 239.453125 C 181.164062 240.539062 181.667969 241.597656 182.21875 242.628906 C 182.773438 243.664062 183.378906 244.667969 184.03125 245.644531 C 184.683594 246.617188 185.382812 247.558594 186.125 248.464844 C 186.871094 249.371094 187.65625 250.242188 188.488281 251.070312 C 189.316406 251.898438 190.183594 252.6875 191.089844 253.429688 C 191.996094 254.175781 192.9375 254.875 193.914062 255.527344 C 194.886719 256.179688 195.894531 256.78125 196.925781 257.335938 C 197.960938 257.890625 199.019531 258.394531 200.101562 258.84375 C 201.1875 259.292969 202.289062 259.691406 203.410156 260.03125 C 204.53125 260.375 205.667969 260.664062 206.820312 260.894531 C 207.96875 261.125 209.128906 261.300781 210.292969 261.417969 C 211.460938 261.535156 212.632812 261.597656 213.804688 261.601562 L 237.703125 261.601562 C 238.488281 261.601562 239.265625 261.675781 240.035156 261.828125 C 240.804688 261.984375 241.550781 262.210938 242.277344 262.511719 C 243.003906 262.808594 243.691406 263.179688 244.34375 263.613281 C 244.996094 264.050781 245.597656 264.546875 246.152344 265.101562 C 246.710938 265.65625 247.203125 266.257812 247.640625 266.910156 C 248.078125 267.5625 248.445312 268.25 248.746094 268.976562 C 249.042969 269.703125 249.269531 270.449219 249.425781 271.21875 C 249.578125 271.988281 249.652344 272.765625 249.652344 273.550781 C 249.652344 274.335938 249.578125 275.113281 249.425781 275.882812 C 249.269531 276.652344 249.042969 277.398438 248.746094 278.121094 C 248.445312 278.847656 248.078125 279.535156 247.640625 280.1875 C 247.203125 280.839844 246.710938 281.445312 246.152344 282 C 245.597656 282.554688 244.996094 283.050781 244.34375 283.484375 C 243.691406 283.921875 243.003906 284.289062 242.277344 284.589844 C 241.550781 284.890625 240.804688 285.117188 240.035156 285.269531 C 239.265625 285.421875 238.488281 285.5 237.703125 285.5 L 213.804688 285.5 C 211.847656 285.5 209.894531 285.402344 207.949219 285.210938 C 206 285.019531 204.066406 284.734375 202.148438 284.351562 C 200.230469 283.96875 198.335938 283.496094 196.460938 282.925781 C 194.589844 282.359375 192.75 281.699219 190.941406 280.953125 C 189.132812 280.203125 187.367188 279.367188 185.640625 278.445312 C 183.914062 277.523438 182.238281 276.515625 180.609375 275.429688 C 178.984375 274.34375 177.414062 273.179688 175.902344 271.9375 C 174.390625 270.695312 172.941406 269.382812 171.558594 268 C 170.171875 266.617188 168.859375 265.167969 167.621094 263.65625 C 166.378906 262.140625 165.214844 260.574219 164.125 258.945312 C 163.039062 257.320312 162.035156 255.640625 161.113281 253.917969 C 160.191406 252.191406 159.355469 250.421875 158.605469 248.617188 C 157.855469 246.808594 157.199219 244.96875 156.628906 243.09375 C 156.0625 241.222656 155.585938 239.328125 155.207031 237.40625 C 154.824219 235.488281 154.535156 233.554688 154.34375 231.609375 C 154.152344 229.660156 154.058594 227.707031 154.058594 225.75 Z M 643.992188 739.585938 L 118.207031 739.585938 L 118.207031 333.296875 L 643.992188 333.296875 Z M 327.328125 225.75 L 315.378906 225.75 C 314.007812 225.75 312.640625 225.683594 311.277344 225.550781 C 309.914062 225.414062 308.5625 225.214844 307.21875 224.949219 C 305.875 224.679688 304.546875 224.347656 303.234375 223.949219 C 301.925781 223.554688 300.636719 223.09375 299.371094 222.566406 C 298.105469 222.042969 296.871094 221.457031 295.660156 220.8125 C 294.453125 220.167969 293.28125 219.464844 292.140625 218.703125 C 291.003906 217.941406 289.902344 217.125 288.84375 216.257812 C 287.785156 215.390625 286.773438 214.46875 285.804688 213.5 C 284.835938 212.53125 283.914062 211.519531 283.046875 210.460938 C 282.179688 209.402344 281.363281 208.300781 280.601562 207.164062 C 279.839844 206.023438 279.136719 204.851562 278.492188 203.644531 C 277.847656 202.433594 277.261719 201.199219 276.738281 199.933594 C 276.210938 198.667969 275.75 197.378906 275.355469 196.070312 C 274.957031 194.757812 274.625 193.429688 274.355469 192.085938 C 274.089844 190.742188 273.890625 189.390625 273.753906 188.027344 C 273.621094 186.664062 273.554688 185.296875 273.554688 183.925781 C 273.554688 182.558594 273.621094 181.191406 273.753906 179.828125 C 273.890625 178.464844 274.089844 177.113281 274.355469 175.769531 C 274.625 174.425781 274.957031 173.097656 275.355469 171.785156 C 275.75 170.476562 276.210938 169.1875 276.738281 167.921875 C 277.261719 166.65625 277.847656 165.421875 278.492188 164.210938 C 279.136719 163.003906 279.839844 161.832031 280.601562 160.691406 C 281.363281 159.554688 282.179688 158.453125 283.046875 157.394531 C 283.914062 156.335938 284.835938 155.324219 285.804688 154.355469 C 286.773438 153.386719 287.785156 152.464844 288.84375 151.597656 C 289.902344 150.730469 291.003906 149.914062 292.140625 149.152344 C 293.28125 148.390625 294.453125 147.6875 295.660156 147.042969 C 296.871094 146.398438 298.105469 145.8125 299.371094 145.289062 C 300.636719 144.761719 301.925781 144.300781 303.234375 143.90625 C 304.546875 143.507812 305.875 143.175781 307.21875 142.90625 C 308.5625 142.640625 309.914062 142.441406 311.277344 142.304688 C 312.640625 142.171875 314.007812 142.105469 315.378906 142.105469 L 333.300781 142.105469 C 334.472656 142.109375 335.644531 142.167969 336.8125 142.285156 C 337.980469 142.402344 339.136719 142.578125 340.289062 142.808594 C 341.4375 143.042969 342.574219 143.328125 343.695312 143.671875 C 344.816406 144.011719 345.921875 144.410156 347.003906 144.859375 C 348.085938 145.3125 349.144531 145.8125 350.179688 146.367188 C 351.214844 146.921875 352.21875 147.523438 353.195312 148.175781 C 354.167969 148.832031 355.109375 149.527344 356.015625 150.273438 C 356.921875 151.019531 357.789062 151.804688 358.621094 152.632812 C 359.449219 153.464844 360.238281 154.332031 360.980469 155.238281 C 361.726562 156.144531 362.425781 157.085938 363.078125 158.0625 C 363.730469 159.035156 364.332031 160.039062 364.886719 161.074219 C 365.441406 162.109375 365.941406 163.167969 366.394531 164.25 C 366.84375 165.332031 367.242188 166.4375 367.582031 167.558594 C 367.925781 168.679688 368.210938 169.816406 368.445312 170.964844 C 368.675781 172.117188 368.851562 173.273438 368.96875 174.441406 C 369.085938 175.609375 369.148438 176.78125 369.148438 177.953125 C 369.148438 178.738281 369.074219 179.515625 368.921875 180.285156 C 368.765625 181.054688 368.539062 181.800781 368.242188 182.527344 C 367.941406 183.25 367.574219 183.9375 367.136719 184.589844 C 366.699219 185.242188 366.207031 185.847656 365.648438 186.402344 C 365.09375 186.957031 364.492188 187.453125 363.839844 187.886719 C 363.1875 188.324219 362.5 188.691406 361.773438 188.992188 C 361.046875 189.292969 360.300781 189.519531 359.53125 189.671875 C 358.761719 189.824219 357.984375 189.902344 357.199219 189.902344 C 356.414062 189.902344 355.640625 189.824219 354.871094 189.671875 C 354.101562 189.519531 353.351562 189.292969 352.628906 188.992188 C 351.902344 188.691406 351.214844 188.324219 350.5625 187.886719 C 349.910156 187.453125 349.304688 186.957031 348.75 186.402344 C 348.195312 185.847656 347.699219 185.242188 347.265625 184.589844 C 346.828125 183.9375 346.460938 183.25 346.160156 182.527344 C 345.859375 181.800781 345.632812 181.054688 345.480469 180.285156 C 345.328125 179.515625 345.25 178.738281 345.25 177.953125 C 345.25 177.167969 345.175781 176.390625 345.019531 175.621094 C 344.867188 174.851562 344.640625 174.105469 344.339844 173.378906 C 344.042969 172.65625 343.671875 171.964844 343.238281 171.3125 C 342.800781 170.660156 342.304688 170.058594 341.75 169.503906 C 341.195312 168.949219 340.59375 168.453125 339.941406 168.015625 C 339.289062 167.582031 338.597656 167.214844 337.875 166.914062 C 337.148438 166.613281 336.402344 166.386719 335.632812 166.234375 C 334.863281 166.078125 334.085938 166.003906 333.300781 166.003906 L 315.378906 166.003906 C 314.789062 166.003906 314.203125 166.03125 313.621094 166.089844 C 313.035156 166.148438 312.457031 166.234375 311.878906 166.347656 C 311.304688 166.460938 310.734375 166.605469 310.175781 166.773438 C 309.613281 166.945312 309.058594 167.144531 308.519531 167.367188 C 307.976562 167.59375 307.445312 167.84375 306.925781 168.121094 C 306.410156 168.398438 305.90625 168.699219 305.417969 169.023438 C 304.929688 169.351562 304.460938 169.699219 304.007812 170.070312 C 303.550781 170.445312 303.117188 170.839844 302.703125 171.253906 C 302.289062 171.667969 301.894531 172.101562 301.519531 172.554688 C 301.148438 173.011719 300.800781 173.480469 300.472656 173.96875 C 300.148438 174.457031 299.847656 174.960938 299.570312 175.476562 C 299.292969 175.996094 299.042969 176.527344 298.816406 177.066406 C 298.59375 177.609375 298.394531 178.164062 298.222656 178.722656 C 298.054688 179.285156 297.910156 179.855469 297.796875 180.429688 C 297.683594 181.007812 297.597656 181.585938 297.539062 182.171875 C 297.480469 182.753906 297.453125 183.339844 297.453125 183.925781 C 297.453125 184.515625 297.480469 185.101562 297.539062 185.683594 C 297.597656 186.269531 297.683594 186.847656 297.796875 187.425781 C 297.910156 188 298.054688 188.570312 298.222656 189.132812 C 298.394531 189.691406 298.59375 190.246094 298.816406 190.785156 C 299.042969 191.328125 299.292969 191.859375 299.570312 192.378906 C 299.847656 192.894531 300.148438 193.398438 300.472656 193.886719 C 300.800781 194.375 301.148438 194.84375 301.519531 195.300781 C 301.894531 195.753906 302.289062 196.1875 302.703125 196.601562 C 303.117188 197.015625 303.550781 197.410156 304.007812 197.785156 C 304.460938 198.15625 304.929688 198.503906 305.417969 198.832031 C 305.90625 199.15625 306.410156 199.457031 306.925781 199.734375 C 307.445312 200.011719 307.976562 200.261719 308.519531 200.488281 C 309.058594 200.710938 309.613281 200.910156 310.175781 201.082031 C 310.734375 201.25 311.304688 201.394531 311.878906 201.507812 C 312.457031 201.621094 313.035156 201.707031 313.621094 201.765625 C 314.203125 201.824219 314.789062 201.851562 315.378906 201.851562 L 327.328125 201.851562 C 328.695312 201.851562 330.0625 201.917969 331.425781 202.054688 C 332.789062 202.1875 334.140625 202.386719 335.484375 202.65625 C 336.828125 202.921875 338.15625 203.253906 339.46875 203.652344 C 340.777344 204.050781 342.066406 204.511719 343.332031 205.035156 C 344.597656 205.558594 345.835938 206.144531 347.042969 206.789062 C 348.25 207.4375 349.421875 208.140625 350.5625 208.902344 C 351.703125 209.660156 352.800781 210.476562 353.859375 211.34375 C 354.917969 212.214844 355.933594 213.132812 356.898438 214.101562 C 357.867188 215.070312 358.789062 216.085938 359.65625 217.144531 C 360.527344 218.203125 361.339844 219.300781 362.101562 220.441406 C 362.863281 221.578125 363.566406 222.753906 364.210938 223.960938 C 364.859375 225.167969 365.441406 226.40625 365.964844 227.671875 C 366.492188 228.9375 366.953125 230.222656 367.347656 231.535156 C 367.746094 232.847656 368.078125 234.171875 368.347656 235.515625 C 368.613281 236.859375 368.816406 238.214844 368.949219 239.578125 C 369.082031 240.941406 369.148438 242.304688 369.148438 243.675781 C 369.148438 245.046875 369.082031 246.410156 368.949219 247.773438 C 368.816406 249.136719 368.613281 250.492188 368.347656 251.835938 C 368.078125 253.179688 367.746094 254.503906 367.347656 255.816406 C 366.953125 257.128906 366.492188 258.414062 365.964844 259.679688 C 365.441406 260.945312 364.859375 262.183594 364.210938 263.390625 C 363.566406 264.597656 362.863281 265.773438 362.101562 266.910156 C 361.339844 268.050781 360.527344 269.148438 359.65625 270.207031 C 358.789062 271.265625 357.867188 272.28125 356.898438 273.25 C 355.933594 274.21875 354.917969 275.136719 353.859375 276.003906 C 352.800781 276.875 351.703125 277.691406 350.5625 278.449219 C 349.421875 279.210938 348.25 279.914062 347.042969 280.5625 C 345.835938 281.207031 344.597656 281.792969 343.332031 282.316406 C 342.066406 282.839844 340.777344 283.300781 339.46875 283.699219 C 338.15625 284.097656 336.828125 284.429688 335.484375 284.695312 C 334.140625 284.964844 332.789062 285.164062 331.425781 285.296875 C 330.0625 285.433594 328.695312 285.5 327.328125 285.5 L 309.402344 285.5 C 308.230469 285.496094 307.058594 285.433594 305.890625 285.316406 C 304.722656 285.199219 303.566406 285.023438 302.414062 284.792969 C 301.265625 284.5625 300.128906 284.273438 299.007812 283.933594 C 297.886719 283.589844 296.78125 283.191406 295.699219 282.742188 C 294.617188 282.292969 293.558594 281.789062 292.523438 281.234375 C 291.488281 280.679688 290.484375 280.078125 289.511719 279.425781 C 288.535156 278.773438 287.59375 278.074219 286.6875 277.332031 C 285.78125 276.585938 284.914062 275.796875 284.082031 274.96875 C 283.253906 274.140625 282.46875 273.269531 281.722656 272.363281 C 280.976562 271.457031 280.28125 270.515625 279.628906 269.542969 C 278.972656 268.566406 278.371094 267.5625 277.816406 266.527344 C 277.261719 265.496094 276.761719 264.4375 276.308594 263.351562 C 275.859375 262.269531 275.464844 261.167969 275.121094 260.046875 C 274.777344 258.921875 274.492188 257.789062 274.257812 256.636719 C 274.027344 255.488281 273.851562 254.328125 273.734375 253.160156 C 273.617188 251.992188 273.558594 250.824219 273.554688 249.652344 C 273.554688 248.867188 273.628906 248.089844 273.78125 247.320312 C 273.9375 246.550781 274.164062 245.800781 274.464844 245.078125 C 274.761719 244.351562 275.132812 243.664062 275.566406 243.011719 C 276.003906 242.359375 276.5 241.753906 277.054688 241.199219 C 277.609375 240.644531 278.210938 240.152344 278.863281 239.714844 C 279.515625 239.277344 280.207031 238.910156 280.929688 238.609375 C 281.65625 238.308594 282.402344 238.082031 283.171875 237.929688 C 283.941406 237.777344 284.71875 237.699219 285.503906 237.699219 C 286.289062 237.699219 287.066406 237.777344 287.835938 237.929688 C 288.605469 238.082031 289.351562 238.308594 290.074219 238.609375 C 290.800781 238.910156 291.488281 239.277344 292.140625 239.714844 C 292.792969 240.152344 293.398438 240.644531 293.953125 241.199219 C 294.507812 241.753906 295.003906 242.359375 295.4375 243.011719 C 295.875 243.664062 296.242188 244.351562 296.542969 245.078125 C 296.84375 245.800781 297.070312 246.550781 297.222656 247.320312 C 297.375 248.089844 297.453125 248.867188 297.453125 249.652344 C 297.453125 250.433594 297.527344 251.210938 297.683594 251.980469 C 297.835938 252.75 298.0625 253.5 298.363281 254.222656 C 298.664062 254.949219 299.03125 255.636719 299.464844 256.289062 C 299.902344 256.941406 300.398438 257.546875 300.953125 258.101562 C 301.507812 258.65625 302.109375 259.148438 302.761719 259.585938 C 303.414062 260.023438 304.105469 260.390625 304.828125 260.691406 C 305.554688 260.992188 306.300781 261.21875 307.070312 261.371094 C 307.839844 261.523438 308.617188 261.601562 309.402344 261.601562 L 327.328125 261.601562 C 327.914062 261.601562 328.5 261.570312 329.082031 261.515625 C 329.667969 261.457031 330.246094 261.371094 330.824219 261.253906 C 331.398438 261.140625 331.96875 261 332.53125 260.828125 C 333.089844 260.65625 333.644531 260.460938 334.1875 260.234375 C 334.726562 260.011719 335.257812 259.761719 335.777344 259.484375 C 336.292969 259.207031 336.796875 258.90625 337.285156 258.578125 C 337.773438 258.253906 338.242188 257.902344 338.699219 257.53125 C 339.152344 257.160156 339.585938 256.765625 340 256.351562 C 340.417969 255.933594 340.808594 255.5 341.183594 255.046875 C 341.554688 254.59375 341.902344 254.121094 342.230469 253.632812 C 342.554688 253.144531 342.859375 252.644531 343.132812 252.125 C 343.410156 251.609375 343.660156 251.078125 343.886719 250.535156 C 344.109375 249.992188 344.308594 249.441406 344.480469 248.878906 C 344.648438 248.316406 344.792969 247.75 344.90625 247.171875 C 345.019531 246.597656 345.105469 246.015625 345.164062 245.433594 C 345.222656 244.847656 345.25 244.261719 345.25 243.675781 C 345.25 243.089844 345.222656 242.503906 345.164062 241.917969 C 345.105469 241.335938 345.019531 240.753906 344.90625 240.179688 C 344.792969 239.601562 344.648438 239.035156 344.480469 238.472656 C 344.308594 237.910156 344.109375 237.359375 343.886719 236.816406 C 343.660156 236.273438 343.410156 235.742188 343.132812 235.226562 C 342.859375 234.707031 342.554688 234.207031 342.230469 233.71875 C 341.902344 233.230469 341.554688 232.757812 341.183594 232.304688 C 340.808594 231.851562 340.417969 231.417969 340 231 C 339.585938 230.585938 339.152344 230.191406 338.699219 229.820312 C 338.242188 229.449219 337.773438 229.097656 337.285156 228.773438 C 336.796875 228.445312 336.292969 228.144531 335.777344 227.867188 C 335.257812 227.589844 334.726562 227.339844 334.1875 227.117188 C 333.644531 226.890625 333.089844 226.695312 332.53125 226.523438 C 331.96875 226.351562 331.398438 226.210938 330.824219 226.097656 C 330.246094 225.980469 329.667969 225.894531 329.082031 225.835938 C 328.5 225.78125 327.914062 225.75 327.328125 225.75 Z M 446.824219 225.75 L 434.875 225.75 C 433.503906 225.75 432.136719 225.683594 430.773438 225.550781 C 429.410156 225.414062 428.058594 225.214844 426.714844 224.949219 C 425.371094 224.679688 424.042969 224.347656 422.730469 223.949219 C 421.421875 223.554688 420.132812 223.09375 418.867188 222.566406 C 417.601562 222.042969 416.367188 221.457031 415.15625 220.8125 C 413.949219 220.167969 412.777344 219.464844 411.636719 218.703125 C 410.5 217.941406 409.398438 217.125 408.339844 216.257812 C 407.28125 215.390625 406.269531 214.46875 405.300781 213.5 C 404.332031 212.53125 403.410156 211.519531 402.542969 210.460938 C 401.675781 209.402344 400.859375 208.300781 400.097656 207.164062 C 399.335938 206.023438 398.632812 204.851562 397.988281 203.644531 C 397.34375 202.433594 396.757812 201.199219 396.234375 199.933594 C 395.707031 198.667969 395.246094 197.378906 394.851562 196.070312 C 394.453125 194.757812 394.121094 193.429688 393.851562 192.085938 C 393.585938 190.742188 393.386719 189.390625 393.25 188.027344 C 393.117188 186.664062 393.050781 185.296875 393.050781 183.925781 C 393.050781 182.558594 393.117188 181.191406 393.25 179.828125 C 393.386719 178.464844 393.585938 177.113281 393.851562 175.769531 C 394.121094 174.425781 394.453125 173.097656 394.851562 171.785156 C 395.246094 170.476562 395.707031 169.1875 396.234375 167.921875 C 396.757812 166.65625 397.34375 165.421875 397.988281 164.210938 C 398.632812 163.003906 399.335938 161.832031 400.097656 160.691406 C 400.859375 159.554688 401.675781 158.453125 402.542969 157.394531 C 403.410156 156.335938 404.332031 155.324219 405.300781 154.355469 C 406.269531 153.386719 407.28125 152.464844 408.339844 151.597656 C 409.398438 150.730469 410.5 149.914062 411.636719 149.152344 C 412.777344 148.390625 413.949219 147.6875 415.15625 147.042969 C 416.367188 146.398438 417.601562 145.8125 418.867188 145.289062 C 420.132812 144.761719 421.421875 144.300781 422.730469 143.90625 C 424.042969 143.507812 425.371094 143.175781 426.714844 142.90625 C 428.058594 142.640625 429.410156 142.441406 430.773438 142.304688 C 432.136719 142.171875 433.503906 142.105469 434.875 142.105469 L 452.796875 142.105469 C 453.96875 142.109375 455.140625 142.167969 456.308594 142.285156 C 457.476562 142.402344 458.632812 142.578125 459.785156 142.808594 C 460.933594 143.042969 462.070312 143.328125 463.191406 143.671875 C 464.3125 144.011719 465.417969 144.410156 466.5 144.859375 C 467.582031 145.3125 468.640625 145.8125 469.675781 146.367188 C 470.710938 146.921875 471.714844 147.523438 472.6875 148.175781 C 473.664062 148.832031 474.605469 149.527344 475.511719 150.273438 C 476.417969 151.019531 477.285156 151.804688 478.117188 152.632812 C 478.945312 153.464844 479.734375 154.332031 480.476562 155.238281 C 481.222656 156.144531 481.921875 157.085938 482.574219 158.0625 C 483.226562 159.035156 483.828125 160.039062 484.382812 161.074219 C 484.9375 162.109375 485.4375 163.167969 485.890625 164.25 C 486.339844 165.332031 486.738281 166.4375 487.078125 167.558594 C 487.421875 168.679688 487.707031 169.816406 487.941406 170.964844 C 488.171875 172.117188 488.347656 173.273438 488.464844 174.441406 C 488.582031 175.609375 488.644531 176.78125 488.644531 177.953125 C 488.644531 178.738281 488.570312 179.515625 488.417969 180.285156 C 488.261719 181.054688 488.035156 181.800781 487.738281 182.527344 C 487.4375 183.25 487.066406 183.9375 486.632812 184.589844 C 486.195312 185.242188 485.699219 185.847656 485.144531 186.402344 C 484.589844 186.957031 483.988281 187.453125 483.335938 187.886719 C 482.683594 188.324219 481.996094 188.691406 481.269531 188.992188 C 480.542969 189.292969 479.796875 189.519531 479.027344 189.671875 C 478.257812 189.824219 477.480469 189.902344 476.695312 189.902344 C 475.910156 189.902344 475.136719 189.824219 474.367188 189.671875 C 473.597656 189.519531 472.847656 189.292969 472.125 188.992188 C 471.398438 188.691406 470.710938 188.324219 470.058594 187.886719 C 469.40625 187.453125 468.800781 186.957031 468.246094 186.402344 C 467.691406 185.847656 467.195312 185.242188 466.761719 184.589844 C 466.324219 183.9375 465.957031 183.25 465.65625 182.527344 C 465.355469 181.800781 465.128906 181.054688 464.976562 180.285156 C 464.824219 179.515625 464.746094 178.738281 464.746094 177.953125 C 464.746094 177.167969 464.671875 176.390625 464.515625 175.621094 C 464.363281 174.851562 464.136719 174.105469 463.835938 173.378906 C 463.539062 172.65625 463.167969 171.964844 462.734375 171.3125 C 462.296875 170.660156 461.800781 170.058594 461.246094 169.503906 C 460.691406 168.949219 460.089844 168.453125 459.4375 168.015625 C 458.785156 167.582031 458.09375 167.214844 457.371094 166.914062 C 456.644531 166.613281 455.898438 166.386719 455.128906 166.234375 C 454.359375 166.078125 453.582031 166.003906 452.796875 166.003906 L 434.875 166.003906 C 434.285156 166.003906 433.699219 166.03125 433.117188 166.089844 C 432.53125 166.148438 431.953125 166.234375 431.375 166.347656 C 430.800781 166.460938 430.230469 166.605469 429.671875 166.773438 C 429.109375 166.945312 428.554688 167.144531 428.015625 167.367188 C 427.472656 167.59375 426.941406 167.84375 426.421875 168.121094 C 425.90625 168.398438 425.402344 168.699219 424.914062 169.023438 C 424.425781 169.351562 423.957031 169.699219 423.503906 170.070312 C 423.046875 170.445312 422.613281 170.839844 422.199219 171.253906 C 421.785156 171.667969 421.390625 172.101562 421.015625 172.554688 C 420.644531 173.011719 420.296875 173.480469 419.96875 173.96875 C 419.644531 174.457031 419.34375 174.960938 419.066406 175.476562 C 418.789062 175.996094 418.539062 176.527344 418.3125 177.066406 C 418.089844 177.609375 417.890625 178.164062 417.71875 178.722656 C 417.550781 179.285156 417.40625 179.855469 417.292969 180.429688 C 417.179688 181.007812 417.09375 181.585938 417.035156 182.171875 C 416.976562 182.753906 416.949219 183.339844 416.949219 183.925781 C 416.949219 184.515625 416.976562 185.101562 417.035156 185.683594 C 417.09375 186.269531 417.179688 186.847656 417.292969 187.425781 C 417.40625 188 417.550781 188.570312 417.71875 189.132812 C 417.890625 189.691406 418.089844 190.246094 418.3125 190.785156 C 418.539062 191.328125 418.789062 191.859375 419.066406 192.378906 C 419.34375 192.894531 419.644531 193.398438 419.96875 193.886719 C 420.296875 194.375 420.644531 194.84375 421.015625 195.300781 C 421.390625 195.753906 421.785156 196.1875 422.199219 196.601562 C 422.613281 197.015625 423.046875 197.410156 423.503906 197.785156 C 423.957031 198.15625 424.425781 198.503906 424.914062 198.832031 C 425.402344 199.15625 425.90625 199.457031 426.421875 199.734375 C 426.941406 200.011719 427.472656 200.261719 428.015625 200.488281 C 428.554688 200.710938 429.109375 200.910156 429.667969 201.082031 C 430.230469 201.25 430.800781 201.394531 431.375 201.507812 C 431.953125 201.621094 432.53125 201.707031 433.117188 201.765625 C 433.699219 201.824219 434.285156 201.851562 434.875 201.851562 L 446.824219 201.851562 C 448.191406 201.851562 449.558594 201.917969 450.921875 202.054688 C 452.285156 202.1875 453.636719 202.386719 454.980469 202.65625 C 456.324219 202.921875 457.652344 203.253906 458.964844 203.652344 C 460.273438 204.050781 461.5625 204.511719 462.828125 205.035156 C 464.09375 205.558594 465.332031 206.144531 466.539062 206.789062 C 467.746094 207.4375 468.917969 208.140625 470.058594 208.902344 C 471.199219 209.660156 472.296875 210.476562 473.355469 211.34375 C 474.414062 212.214844 475.429688 213.132812 476.398438 214.101562 C 477.363281 215.070312 478.285156 216.085938 479.152344 217.144531 C 480.023438 218.203125 480.835938 219.300781 481.597656 220.441406 C 482.359375 221.578125 483.0625 222.753906 483.707031 223.960938 C 484.355469 225.167969 484.9375 226.40625 485.460938 227.671875 C 485.988281 228.9375 486.449219 230.222656 486.84375 231.535156 C 487.242188 232.847656 487.574219 234.171875 487.84375 235.515625 C 488.109375 236.859375 488.3125 238.214844 488.445312 239.578125 C 488.578125 240.941406 488.644531 242.304688 488.644531 243.675781 C 488.644531 245.046875 488.578125 246.410156 488.445312 247.773438 C 488.3125 249.136719 488.109375 250.492188 487.84375 251.835938 C 487.574219 253.179688 487.242188 254.503906 486.84375 255.816406 C 486.449219 257.128906 485.988281 258.414062 485.460938 259.679688 C 484.9375 260.945312 484.355469 262.183594 483.707031 263.390625 C 483.0625 264.597656 482.359375 265.773438 481.597656 266.910156 C 480.835938 268.050781 480.023438 269.148438 479.152344 270.207031 C 478.285156 271.265625 477.363281 272.28125 476.398438 273.25 C 475.429688 274.21875 474.414062 275.136719 473.355469 276.003906 C 472.296875 276.875 471.199219 277.691406 470.058594 278.449219 C 468.917969 279.210938 467.746094 279.914062 466.539062 280.5625 C 465.332031 281.207031 464.09375 281.792969 462.828125 282.316406 C 461.5625 282.839844 460.273438 283.300781 458.964844 283.699219 C 457.652344 284.097656 456.324219 284.429688 454.980469 284.695312 C 453.636719 284.964844 452.285156 285.164062 450.921875 285.296875 C 449.558594 285.433594 448.191406 285.5 446.824219 285.5 L 428.898438 285.5 C 427.726562 285.496094 426.554688 285.433594 425.386719 285.316406 C 424.21875 285.199219 423.0625 285.023438 421.910156 284.792969 C 420.761719 284.5625 419.625 284.273438 418.503906 283.933594 C 417.382812 283.589844 416.277344 283.191406 415.195312 282.742188 C 414.113281 282.292969 413.054688 281.789062 412.019531 281.234375 C 410.984375 280.679688 409.980469 280.078125 409.007812 279.425781 C 408.03125 278.773438 407.089844 278.074219 406.183594 277.332031 C 405.277344 276.585938 404.410156 275.796875 403.578125 274.96875 C 402.75 274.140625 401.964844 273.269531 401.21875 272.363281 C 400.472656 271.457031 399.777344 270.515625 399.125 269.542969 C 398.46875 268.566406 397.867188 267.5625 397.3125 266.527344 C 396.757812 265.496094 396.257812 264.4375 395.804688 263.351562 C 395.355469 262.269531 394.960938 261.167969 394.617188 260.046875 C 394.273438 258.921875 393.988281 257.789062 393.753906 256.636719 C 393.523438 255.488281 393.347656 254.328125 393.230469 253.160156 C 393.113281 251.992188 393.054688 250.824219 393.050781 249.652344 C 393.050781 248.867188 393.125 248.089844 393.277344 247.320312 C 393.433594 246.550781 393.660156 245.800781 393.960938 245.078125 C 394.257812 244.351562 394.628906 243.664062 395.0625 243.011719 C 395.5 242.359375 395.996094 241.753906 396.550781 241.199219 C 397.105469 240.644531 397.707031 240.152344 398.359375 239.714844 C 399.011719 239.277344 399.703125 238.910156 400.425781 238.609375 C 401.152344 238.308594 401.898438 238.082031 402.667969 237.929688 C 403.4375 237.777344 404.214844 237.699219 405 237.699219 C 405.785156 237.699219 406.5625 237.777344 407.332031 237.929688 C 408.101562 238.082031 408.847656 238.308594 409.570312 238.609375 C 410.296875 238.910156 410.984375 239.277344 411.636719 239.714844 C 412.289062 240.152344 412.894531 240.644531 413.449219 241.199219 C 414.003906 241.753906 414.5 242.359375 414.933594 243.011719 C 415.371094 243.664062 415.738281 244.351562 416.039062 245.078125 C 416.339844 245.800781 416.566406 246.550781 416.71875 247.320312 C 416.871094 248.089844 416.949219 248.867188 416.949219 249.652344 C 416.949219 250.433594 417.023438 251.210938 417.179688 251.980469 C 417.332031 252.75 417.558594 253.5 417.859375 254.222656 C 418.160156 254.949219 418.527344 255.636719 418.960938 256.289062 C 419.398438 256.941406 419.894531 257.546875 420.449219 258.101562 C 421.003906 258.65625 421.605469 259.148438 422.257812 259.585938 C 422.910156 260.023438 423.601562 260.390625 424.324219 260.691406 C 425.050781 260.992188 425.796875 261.21875 426.566406 261.371094 C 427.335938 261.523438 428.113281 261.601562 428.898438 261.601562 L 446.824219 261.601562 C 447.410156 261.601562 447.996094 261.570312 448.578125 261.515625 C 449.164062 261.457031 449.742188 261.371094 450.320312 261.253906 C 450.894531 261.140625 451.464844 261 452.027344 260.828125 C 452.585938 260.65625 453.140625 260.460938 453.683594 260.234375 C 454.222656 260.011719 454.753906 259.761719 455.273438 259.484375 C 455.789062 259.207031 456.292969 258.90625 456.78125 258.578125 C 457.269531 258.253906 457.738281 257.902344 458.195312 257.53125 C 458.648438 257.160156 459.082031 256.765625 459.496094 256.351562 C 459.914062 255.933594 460.304688 255.5 460.679688 255.046875 C 461.050781 254.59375 461.398438 254.121094 461.726562 253.632812 C 462.050781 253.144531 462.355469 252.644531 462.628906 252.125 C 462.90625 251.609375 463.15625 251.078125 463.382812 250.535156 C 463.605469 249.992188 463.804688 249.441406 463.976562 248.878906 C 464.144531 248.316406 464.289062 247.75 464.402344 247.171875 C 464.515625 246.597656 464.601562 246.015625 464.660156 245.433594 C 464.71875 244.847656 464.746094 244.261719 464.746094 243.675781 C 464.746094 243.089844 464.71875 242.503906 464.660156 241.917969 C 464.601562 241.335938 464.515625 240.753906 464.402344 240.179688 C 464.289062 239.601562 464.144531 239.035156 463.976562 238.472656 C 463.804688 237.910156 463.605469 237.359375 463.382812 236.816406 C 463.15625 236.273438 462.90625 235.742188 462.628906 235.226562 C 462.355469 234.707031 462.050781 234.207031 461.726562 233.71875 C 461.398438 233.230469 461.050781 232.757812 460.679688 232.304688 C 460.304688 231.851562 459.914062 231.417969 459.496094 231 C 459.082031 230.585938 458.648438 230.191406 458.195312 229.820312 C 457.738281 229.449219 457.269531 229.097656 456.78125 228.773438 C 456.292969 228.445312 455.789062 228.144531 455.273438 227.867188 C 454.753906 227.589844 454.222656 227.339844 453.683594 227.117188 C 453.140625 226.890625 452.585938 226.695312 452.027344 226.523438 C 451.464844 226.351562 450.894531 226.210938 450.320312 226.097656 C 449.742188 225.980469 449.164062 225.894531 448.578125 225.835938 C 447.996094 225.78125 447.410156 225.75 446.824219 225.75 Z M 548.394531 201.851562 L 548.394531 135.054688 L 627.140625 213.800781 L 560.34375 213.800781 C 559.558594 213.800781 558.78125 213.726562 558.011719 213.570312 C 557.242188 213.417969 556.496094 213.191406 555.769531 212.890625 C 555.046875 212.59375 554.359375 212.222656 553.707031 211.789062 C 553.054688 211.351562 552.449219 210.855469 551.894531 210.300781 C 551.339844 209.746094 550.84375 209.144531 550.410156 208.492188 C 549.972656 207.839844 549.605469 207.148438 549.304688 206.425781 C 549.003906 205.699219 548.777344 204.953125 548.625 204.183594 C 548.472656 203.414062 548.394531 202.636719 548.394531 201.851562 Z M 691.789062 691.785156 L 667.890625 691.785156 L 667.890625 225.75 C 667.878906 224.167969 667.574219 222.640625 666.976562 221.175781 C 666.375 219.710938 665.527344 218.40625 664.425781 217.265625 L 544.929688 97.769531 C 543.789062 96.671875 542.488281 95.820312 541.019531 95.222656 C 539.554688 94.621094 538.027344 94.316406 536.445312 94.304688 L 166.007812 94.304688 L 166.007812 70.40625 L 691.789062 70.40625 Z M 691.789062 691.785156 " fill-opacity="1" fill-rule="nonzero"/></g></svg>